<?xml version="1.0" encoding="utf-8"?>
<svg width="1313px" height="2099px" viewBox="0 0 1313 2099" version="1.1" xmlns="http://www.w3.org/2000/svg">
  <defs>
    <clipPath id="clippath0" transform="">
      <path d="M 0 2032.715 L 1920 2032.715 L 1920 0 L 0 0 Z" style="fill: none; clip-rule: nonzero;"/>
    </clipPath>
    <clipPath id="clip-1" transform="">
      <path d="M 0 2032.715 L 1920 2032.715 L 1920 0 L 0 0 Z" style="fill: none; clip-rule: nonzero;"/>
    </clipPath>
    <clipPath id="clip-2" transform="">
      <path d="M 0 2032.715 L 1920 2032.715 L 1920 0 L 0 0 Z" style="fill: none; clip-rule: nonzero;"/>
    </clipPath>
    <clipPath id="clip-3" transform="">
      <path d="M 0 2032.715 L 1920 2032.715 L 1920 0 L 0 0 Z" style="fill: none; clip-rule: nonzero;"/>
    </clipPath>
    <clipPath id="clip-4" transform="">
      <path d="M 0 2032.715 L 1920 2032.715 L 1920 0 L 0 0 Z" style="fill: none; clip-rule: nonzero;"/>
    </clipPath>
    <clipPath id="clip-5" transform="">
      <path d="M 0 2032.715 L 1920 2032.715 L 1920 0 L 0 0 Z" style="fill: none; clip-rule: nonzero;"/>
    </clipPath>
  </defs>
  <title>小航机器人图</title>
  <g id="小航机器人图" stroke="none" stroke-width="1" fill="none" fill-rule="evenodd">
    <g id="编组-3" transform="matrix(1, 0, 0, 1, 64, 65)">
      <path d="M772.762365,958 C776.402388,956.47681 779.961917,954.399091 783.485931,952.389768 C785.587526,951.191481 787.67649,950.017518 789.762365,949 C920.234247,885.354024 1009.73006,764.528161 1015.76236,605 C1016.30348,590.689885 1044.76236,589 1058.76236,531 C1072.76236,473 1061.38541,442.876775 1058.76236,430 C1047.76236,376 1031.32141,359.745392 1015.76236,339 C988.762365,303 959.189533,313.204084 954.762365,303 C872.762365,114 742.762365,0 528.762365,0 C284.768096,0 144.762365,148 86.7623648,355 C81.4010839,374.134226 56.7623648,368 32.7623648,406 C8.76236478,444 3.76236478,477 0.762364785,506 C-2.23763522,535 3.45155564,584.261378 20.7623648,616 C34.0034291,640.27692 61.764988,649.711327 67.7623648,671 C89.1835846,747.038137 108.125207,828.367612 162.762365,881 C209.690172,926.205912 266.966216,968.846876 334.762365,988" id="路径" stroke="#030303" stroke-width="15" stroke-linecap="round"/>
      <path d="M533.762365,233 C614.718172,233 710.359573,241.470605 778.820649,292.043383 C860.39791,352.305198 907.762365,462.457445 907.762365,559 C907.762365,646.417457 903.747354,716.859297 833.505501,773.199253 C832.29932,774.166713 831.104552,775.125675 829.920252,776.076236 C760.426471,831.85437 727.492081,857.816696 532.880854,875.038929 C422.974714,884.765136 298.91871,850.744856 228.102392,774.208535 C174.945902,716.758468 170.762365,629.869365 170.762365,554 C170.762365,474.959879 194.090404,392.086795 250.787659,336.116547 C321.266867,266.541067 435.472421,233 533.762365,233 Z" id="椭圆形" stroke-width="20" stroke="#030303"/>
      <path d="M700,851 C775,824 773.839254,809.127265 791.762365,785 C843.762365,715 855.591874,640.098321 855.591874,558.40194 C855.591874,469.042825 820.230784,359.749162 744.762365,304 C740.910073,301.15428 736.932357,298.479549 732.841908,295.965537" id="路径" stroke="#030303" stroke-width="6" stroke-linecap="round"/>
      <path d="M534.262365,155 C644.313668,155 753.575599,190.398059 832.701737,265.180324 C904.792982,333.313899 941.27427,436.520562 951.778848,536.314054 C955.744743,573.990056 962.811683,662.874043 937.021881,720.779448 C912.482282,775.877793 854.221537,822.626734 784.640835,856.902942 C704.998536,896.135602 610.42002,919 533.762365,919 C438.731909,919 313.937058,898.770982 240.626129,840.649174 C231.080102,833.080966 221.550088,826.542136 212.361117,820.239837 C188.310439,803.744567 166.557564,788.976327 153.484756,760.739609 C125.098827,699.427191 120.762365,606.39327 120.762365,536 C120.762365,449.084978 158.49413,360.379686 206.119978,299.855171 C280.017852,205.943289 410.970298,155 534.262365,155 Z" id="椭圆形" stroke-width="6" stroke="#030303"/>
      <path d="M243.810903,890.641597 C298.652694,929.388693 412.147985,956 543.262365,956 C713.487816,956 838.762365,875 875.04494,853.111776" id="路径" stroke="#030303" stroke-width="5" stroke-linecap="round"/>
      <path d="M32.7623648,414 C42.9207883,504 37.3333333,564 16,594" id="路径-2" stroke="#030303" stroke-width="8" stroke-linecap="round"/>
      <path d="M90.7623648,355 C97.27614,438.962107 98.6094733,505.628774 94.7623648,555 C92.1552144,588.45843 89.4087766,623.823441 81.7623648,645 C79.3379476,651.714367 74.3379476,657.714367 66.7623648,663" id="路径-4" stroke="#030303" stroke-width="8" stroke-linecap="round"/>
      <path d="M1018.76236,353 C1018.2871,396.092023 1020.2871,427.092023 1024.76236,446 C1027.83026,458.961872 1032.24866,484.999024 1041.76236,504 C1044.6719,509.810982 1050.33857,515.810982 1058.76236,522" id="路径-5" stroke="#030303" stroke-width="8" stroke-linecap="round"/>
      <path d="M952.762365,303 C959.004003,389.272845 967.004003,455.939511 976.762365,503 C983.709324,536.50227 990.867555,567.749408 1000.76236,587 C1003.43195,592.193752 1008.09862,597.193752 1014.76236,602" id="路径-7" stroke="#030303" stroke-width="8" stroke-linecap="round"/>
      <path d="M261.436578,959.387201 C189.097764,1016.08931 141.20636,1056.62691 117.762365,1081 C69.7175601,1130.94884 49.0850465,1176.6933 39.7623648,1200 C29.7623648,1225 26.3348355,1282.60966 53.7623648,1319 C64.1535259,1332.7868 80.0275675,1353.92782 113.762365,1373 C125.736736,1379.76979 149.070069,1389.10312 183.762365,1401" id="路径" stroke="#030303" stroke-width="15" stroke-linecap="round"/>
      <path d="M327.762365,1021 C302.590534,1130.09365 286.062679,1208.711 278.178799,1256.85205 M267,1355 C264.724447,1378.45937 261.494632,1401.05192 260.762365,1422 C257.155049,1525.19501 270.155049,1658.52834 299.762365,1822" id="形状" stroke="#030303" stroke-width="15" stroke-linecap="round"/>
      <path d="M518.762365,1595 L535.762365,1848 C535.762365,1914 508.095698,1950.33333 452.762365,1957 C369.762365,1967 234.762365,1998 220.762365,1913 C211.429031,1856.33333 250.095698,1824 336.762365,1816 C360.882187,1816.5361 378.548853,1817.86943 389.762365,1820 C400.975876,1822.13057 416.642543,1827.13057 436.762365,1835" id="路径-16" stroke="#030303" stroke-width="15" stroke-linecap="round"/>
      <path d="M281.508774,1710.4097 C311.69461,1729.4699 340.445807,1739 367.762365,1739 C382.596089,1739 407.028449,1740.53267 435.762365,1736 C452.789453,1733.31404 482.726582,1726.34809 525.573752,1715.10216" id="路径" stroke="#030303" stroke-width="15" stroke-linecap="round"/>
      <path d="M865.988919,1021 C840.28696,1132.51242 823.540631,1212.49111 815.749931,1260.93608 M802.264092,1368.8924 C800.670936,1387.41088 799.579212,1405.11341 798.988919,1422 C795.381603,1525.19501 808.381603,1658.52834 837.988919,1822" id="形状" stroke="#030303" stroke-width="15" stroke-linecap="round" transform="translate(832.1951, 1421.5) scale(-1, 1) translate(-832.1951, -1421.5)"/>
      <path d="M889.762365,1595 L906.762365,1848 C906.762365,1914 879.095698,1950.33333 823.762365,1957 C740.762365,1967 605.762365,1998 591.762365,1913 C582.429031,1856.33333 621.095698,1824 707.762365,1816 C731.882187,1816.5361 749.548853,1817.86943 760.762365,1820 C771.975876,1822.13057 787.642543,1827.13057 807.762365,1835" id="路径-16" stroke="#030303" stroke-width="15" stroke-linecap="round" transform="translate(748.5818, 1782.8989) scale(-1, 1) translate(-748.5818, -1782.8989)"/>
      <path d="M600.878493,1711.70621 C630.30765,1729.90207 658.367226,1739 685.057222,1739 C699.890946,1739 724.323306,1740.53267 753.057222,1736 C770.046051,1733.32007 799.886972,1726.37937 842.579983,1715.1779" id="路径" stroke="#030303" stroke-width="15" stroke-linecap="round" transform="translate(721.7292, 1725.4778) scale(-1, 1) translate(-721.7292, -1725.4778)"/>
      <path d="M277.762365,1259 C244.429031,1238.33333 215.762365,1228 191.762365,1228 C150.087272,1228 104.3042,1251.88401 83.7623648,1276 C73.7992631,1287.69662 66.1524532,1305.29748 57.2382949,1321.37461" id="路径" stroke="#030303" stroke-width="15" stroke-linecap="round"/>
      <path d="M245.451586,1238.32178 C254.862977,1218.78022 269.299903,1203.67296 288.762365,1193" id="路径" stroke="#030303" stroke-width="15" stroke-linecap="round"/>
      <path d="M138.762365,1386 C138.673849,1420.23593 140.673849,1442.9026 144.762365,1454 C151.762365,1473 166.762365,1483 172.762365,1488 C188.638971,1501.23051 217.638953,1507.23051 259.762311,1506" id="路径-12" stroke="#030303" stroke-width="15" stroke-linecap="round"/>
      <path d="M440.762365,746 C462.287774,756.478901 478.287774,763.145567 488.762365,766 C515.468189,773.277609 541.471245,773.570053 559.762365,772 C575.942206,770.611172 605.238907,766.146688 626.762365,757 C638.17827,752.148655 653.511604,742.148655 672.762365,727" id="路径-13" stroke="#030303" stroke-width="15" stroke-linecap="round"/>
      <path d="M275.762365,468 C296.429031,448 318.429031,444.666667 341.762365,458" id="路径-14" stroke="#030303" stroke-width="10" stroke-linecap="round"/>
      <path d="M647.762365,411 C668.429031,391 690.429031,387.666667 713.762365,401" id="路径-14" stroke="#030303" stroke-width="10" stroke-linecap="round"/>
      <path d="M415.762365,1552 C458.103557,1576.43972 492.356372,1590.66743 518.520812,1594.68312 C532.92834,1596.89437 548.008857,1598 563.762365,1598 C622.429031,1598 671.429031,1582.66667 710.762365,1552" id="路径-15" stroke="#030303" stroke-width="15" stroke-linecap="round"/>
      <path d="M865.762365,1506.00053 C865.762365,1506.00053 883.648054,1486.48604 886.762365,1446 C889.051582,1416.24017 889.087619,1346.98943 886.870474,1238.24778" id="路径" stroke="#030303" stroke-width="15" stroke-linecap="round"/>
      <g id="编组" transform="translate(203.7624, 1232.2263)" stroke="#030303">
        <path d="M247.750103,41.5846493 C277.779136,42.9779388 309.770797,44.0880172 343.725086,44.9148846 C462.653152,47.8110648 563.382856,43.4910207 645.914196,31.9547521 L645.914162,31.9545302 C655.615544,30.599322 664.630915,37.0082846 666.050557,46.2693486 C666.17521,47.082528 666.237635,47.9032862 666.237635,48.725126 L666.237635,86.3414407 L666.237635,86.3414407 L666.237635,114.078711 C666.237635,122.89667 659.15153,130.240177 649.945653,130.965861 C541.773966,139.504325 439.700453,143.773712 343.725086,143.773712 C309.208163,143.773712 274.712346,142.77972 240.237635,140.791738 M106.500225,126.773712 C97.9477021,125.684678 81.6165529,123.520992 57.5067775,120.282654 L57.506759,120.28278 C48.7508329,119.106868 42.2376352,111.960473 42.2376352,103.525698 L42.2376352,42.6984159 C42.2376352,33.351002 50.1815989,25.7737117 59.980605,25.7737117 C60.7883307,25.7737117 61.5951128,25.8263527 62.3953212,25.9312283 L62.3953265,25.9311917 C86.6956896,29.1156299 103.643126,31.1876703 113.237635,32.1473128" id="形状" stroke-width="15"/>
        <rect id="矩形" stroke-width="15" transform="translate(170.2876, 95.2736) rotate(3) translate(-170.2876, -95.2736)" x="103.287642" y="11.2736312" width="134" height="168" rx="27"/>
        <circle id="椭圆形" stroke-width="10" cx="146" cy="57.7737117" r="15"/>
        <circle id="椭圆形" stroke-width="10" cx="197" cy="63.7737117" r="15"/>
        <circle id="椭圆形" stroke-width="10" cx="141" cy="143.773712" r="15"/>
        <polyline id="路径" stroke-width="12" stroke-linecap="round" points="103.882092 108.056046 148.093641 111.271431 155 111.773712 160.114101 116.52252 183 137.773712 235.820613 144.794216"/>
      </g>
      <path d="M840.762365,1209 C888.987663,1236.80956 926.376085,1251.72959 952.927629,1253.7601" id="路径" stroke="#030303" stroke-width="15" stroke-linecap="round"/>
      <path d="M946.762365,1060 C885.754172,986.575856 891.087506,918.242523 962.762365,855 C979.762365,840 1011.75026,872.25622 1024.76236,890 C1035.76236,905 1048.68122,928.753719 1048.76236,929 C1050.71237,934.918712 1054.52268,948.399483 1048.76236,958 C1034.85004,981.187211 1011.96819,980.607771 986.762365,947 C983.762365,943 986.762365,958 983.762365,981 C982.63317,989.657163 977.299836,998.32383 967.762365,1007" id="路径-21" stroke-width="15" stroke-linecap="round" stroke="#030303"/>
      <path d="M1049.14181,919.911158 C1056.51498,917.5668 1063.45045,915.612066 1069.94824,914.046953 C1114.03611,903.427579 1137.97415,910.745261 1141.76236,936 C1144.76236,956 1116.55788,978.115879 1053.76236,979 C1047.98741,979.081308 1041.22258,977.211548 1033.46789,973.39072" id="路径" stroke="#030303" stroke-width="15" stroke-linecap="round"/>
      <path d="M989.843508,851.93809 C991.636677,755.956522 1007.2763,707.310492 1036.76236,706 C1081.76236,704 1059.76236,871 1061.76236,866 C1063.76236,861 1149.76236,750 1191.76236,776 C1219.44783,793.138619 1193.68792,837.651694 1114.48265,909.539226" id="路径" stroke-width="15" stroke-linecap="round" stroke="#030303"/>
      <path d="M1043.76236,983 C1021.0957,1015.66667 1036.42903,1030.66667 1089.76236,1028 C1121.71633,1026.4023 1133.89462,1012.80162 1141.76236,1001 C1147.76236,992 1137.28026,958.517899 1134.76236,956" id="路径-24" stroke-width="15" stroke-linecap="round" stroke="#030303"/>
      <path d="M1056.76236,1080 C1056.76236,1080 1118.53013,1046.30849 1136.13717,1008.80274" id="路径" stroke-width="15" stroke-linecap="round" stroke="#030303"/>
      <path d="M1092.76236,1060 C1087.42903,1198 1044.76236,1263 964.762365,1255 C902.657506,1248.78951 869.360627,1200.95784 876.762365,1116 C878.184209,1099.67994 885.184209,1072.67994 897.762365,1035" id="路径-26" stroke-width="15" stroke-linecap="round" stroke="#030303"/>
      <path d="M789.762365,949 C789.762365,949 837.994615,1006.4042 883.762365,1028 C898.721024,1035.05834 912.953271,1034.70962 925.762365,1032" id="路径-27" stroke="#030303" stroke-width="15" stroke-linecap="round"/>
      <path d="M791.762365,949 C831.445381,942.88652 857.524592,948.88652 870,967 C875.613842,975.150933 878.053595,992.674741 877.31926,1019.57142" id="路径" stroke="#030303" stroke-width="15" stroke-linecap="round"/>
      <path d="M307.20502,530.176606 C327.314309,528.770428 345.880358,560.010781 348.673453,599.953889 C351.466547,639.896996 337.428998,673.417215 317.319709,674.823394 C297.210421,676.229572 278.644371,644.989219 275.851277,605.046111 C273.058183,565.103004 287.095732,531.582785 307.20502,530.176606 Z M295.762365,561 C289.134948,561 283.762365,568.387302 283.762365,577.5 C283.762365,586.612698 289.134948,594 295.762365,594 C302.389782,594 307.762365,586.612698 307.762365,577.5 C307.762365,568.387302 302.389782,561 295.762365,561 Z" id="形状结合" fill="#000000"/>
      <path d="M699.20502,475.176606 C719.314309,473.770428 737.880358,505.010781 740.673453,544.953889 C743.466547,584.896996 729.428998,618.417215 709.319709,619.823394 C689.210421,621.229572 670.644371,589.989219 667.851277,550.046111 C665.058183,510.103004 679.095732,476.582785 699.20502,475.176606 Z M687.762365,512 C681.134948,512 675.762365,519.387302 675.762365,528.5 C675.762365,537.612698 681.134948,545 687.762365,545 C694.389782,545 699.762365,537.612698 699.762365,528.5 C699.762365,519.387302 694.389782,512 687.762365,512 Z" id="形状结合" fill="#000000"/>
      <g style="clip-path: url('#clippath0');" transform="matrix(1.247108, 0, 0, -1.360051, -606.487201, 2511.541579)">
        <g transform="translate(1245.9558 1619.5186)">
          <path d="M 1.377 0.172 C -0.211 0 -5.334 5.491 -6.455 6.871 C -17.751 20.782 -25.024 29.272 -36.869 41.956 C -48.887 54.826 -61.387 67.279 -74.487 79.134 C -91.263 94.314 -109.224 107.829 -128.222 120.017 C -166.181 144.368 -207.141 161.333 -251.475 170.019 C -266.085 172.881 -280.753 174.906 -295.62 176.121 C -311.764 177.441 -327.93 177.533 -343.962 176.661 C -376.07 174.916 -407.589 168.979 -438.423 159.655 C -461.811 152.582 -484.449 143.677 -506.548 133.206 C -538.324 118.151 -567.939 99.655 -595.777 78.312 C -607.207 69.548 -618.096 60.077 -628.474 50.007 C -646.238 32.771 -660.335 13.64 -673.636 -7.335 C -676.959 -12.576 -674.27 -10.734 -676.118 -10.485 C -671.417 3.476 -665.145 17.889 -658.512 30.987 C -637.595 72.294 -615.24 110.398 -580.724 141.418 C -542.501 175.769 -498.287 199.201 -448.805 212.864 C -406.979 224.413 -364.274 228.274 -321.095 226.701 C -263.076 224.589 -207.736 211.852 -156.867 182.785 C -111.889 157.085 -74.577 121.683 -44.678 79.703 C -27.158 55.104 -11.675 27.3 1.477 0.162 C 1.75 -0.403 1.367 0.869 1.518 0.245" style="fill: rgb(224, 224, 224); fill-opacity: 1;"/>
        </g>
      </g>
      <g style="clip-path: url('#clip-1');" transform="matrix(1.202654, 0, 0, -1.199923, -562.367876, 2223.439519)">
        <g transform="translate(601.9424 1385.7598)">
          <path d="M 0 0 C -0.145 -29.971 1.501 -57.942 5.871 -85.818 C 14.979 -143.917 44.46 -188.166 94.106 -219.453 C 148.496 -253.73 208.422 -268.309 271.969 -270.222 C 292.296 -270.834 312.478 -268.515 332.68 -266.504 C 363.409 -263.445 394.005 -259.596 424.258 -253.302 C 452.831 -247.358 480.488 -238.855 506.033 -224.317 C 526.961 -212.406 545.479 -197.186 564.202 -182.253 C 598.012 -155.288 617.462 -120.099 624.104 -77.521 C 626.725 -60.724 627.551 -43.836 628.379 -26.887 C 629.504 -3.868 629.223 19.076 625.806 41.83 C 619.903 81.133 607.081 118.148 586.886 152.457 C 555.042 206.555 511.066 245.738 449.952 264.116 C 416.639 274.134 382.502 278.725 347.962 280.415 C 313.71 282.091 279.507 281.658 245.488 275.856 C 201.554 268.364 159.834 254.841 121.079 232.618 C 71.414 204.141 35.747 163.895 16.775 109.359 C 4.23 73.298 -1.032 36.232 0 0 M -31.339 8.76 C -32.711 88.348 -6.417 158.446 42.576 220.321 C 65.49 249.259 94.543 271.268 126.766 289.099 C 166.279 310.965 208.597 324.612 253.109 331.456 C 286.499 336.59 320.104 337.214 353.667 333.484 C 419.134 326.209 479.479 305.311 532.508 265.239 C 575.954 232.408 605.899 189.607 626.075 139.492 C 640.672 103.235 649.562 65.594 654.211 26.82 C 657.549 -1.029 659.047 -28.953 657.806 -56.917 C 656.541 -85.411 652.694 -113.566 639.077 -139.325 C 626 -164.061 607.158 -183.902 585.375 -201.051 C 538.654 -237.832 485.273 -261.052 428.542 -277.206 C 390.512 -288.035 351.71 -294.56 312.126 -295.035 C 290.336 -295.296 268.562 -293.827 246.842 -291.504 C 214.063 -287.998 181.836 -281.912 150.404 -271.994 C 118.471 -261.918 88.661 -247.724 62.318 -226.561 C 50.796 -217.304 38.211 -209.371 26.138 -200.795 C 4.731 -185.588 -6.876 -164.043 -13.993 -139.406 C -20.513 -116.837 -24.477 -93.851 -27.043 -70.538 C -29.944 -44.185 -31.06 -17.76 -31.339 8.76" style="fill: rgb(124, 125, 125); fill-opacity: 1;"/>
        </g>
      </g>
      <g style="clip-path: url('#clip-2');" transform="matrix(0.963997, 0, 0, -1.144392, -354.562846, 2200.265446)">
        <g transform="matrix(1.169762, 0, 0, 1.155255, 873.030483, 421.970166)" style="">
          <path d="M 2.435 1.033 C -4.506 14.078 -9.961 25.715 -15.67 38.263 C -27.534 64.336 -40.679 89.757 -55.134 114.495 C -55.956 115.902 -57.052 117.266 -56.882 119.077 C -49.809 115.491 -42.78 111.815 -35.654 108.335 C -17.432 99.437 1.065 91.233 21.221 87.707 C 24.728 87.094 24.304 84.94 24.083 82.651 C 22.237 63.461 28.777 44.987 26.933 25.797 C 26.377 20.007 29.419 11.625 29.121 5.82 C 28.989 3.249 34.982 -42.11 32.422 -42.652 C 27.893 -43.609 2.312 0.858 2.457 0.877" style="fill: rgb(196, 196, 196); fill-opacity: 1;"/>
        </g>
      </g>
      <g style="clip-path: url('#clip-3');" transform="matrix(1, 0, 0, -1, -397.615948, 2055.599182)">
        <g transform="translate(1120.9374 801.6459)">
          <path d="M 51.721 -10.223 C 54.354 -9.037 56.23 -7.876 56.354 -4.306 C 56.994 14.289 58.18 32.868 59.017 51.457 C 60.568 85.904 61.726 120.367 63.609 154.797 C 64.688 174.535 66.143 194.247 66.426 214.02 C 66.46 216.364 64.649 219.891 69.197 220.721 C 74.233 206.834 76.592 192.325 79.901 178.048 C 93.43 119.668 106.791 61.255 117.356 2.293 C 118.131 -2.035 117.785 -3.669 112.737 -4.212 C 92.416 -6.397 72.131 -8.877 51.721 -10.223" style="fill: rgb(196, 196, 196); fill-opacity: 1;"/>
          <g style="clip-path: url('#clip-4');" transform="matrix(1.215708, 0, 0, 1.299493, -1295.152382, -1054.952546)">
            <g transform="translate(741.9115 981.4871)">
              <path d="M 0 0 C 1.79 -1.413 1.057 -3.409 1.003 -5.121 C -0.13 -41.085 0.529 -77.068 -0.208 -113.028 C -0.467 -125.665 -0.494 -138.314 -0.925 -150.949 C -1.012 -153.502 -0.535 -155.182 2.374 -155.202 C -7.388 -157.3 -15.055 -162.253 -19.54 -171.441 C -20.188 -172.771 -21.129 -172.984 -22.359 -172.824 C -23.843 -172.63 -25.318 -172.359 -26.805 -172.189 C -36.41 -171.093 -36.357 -171.109 -34.631 -161.639 C -24.888 -108.173 -12.942 -55.172 -0.985 -2.174 C -0.814 -1.414 -0.335 -0.723 0 0" style="fill: rgb(196, 196, 196); fill-opacity: 1;"/>
            </g>
          </g>
          <g style="clip-path: url('#clip-5');" transform="matrix(1, 0, 0, 1.429303, -1089.01639, -1100.256258)">
            <g transform="translate(1042.0653 543.2263)">
              <path d="M -0.812 -3.358 C -3.689 -12.445 -8.254 -17.655 -12.619 -25.989 C -24.956 -49.542 -37.696 -71.955 -49.876 -95.896 C -52.948 -101.933 -75.92 -142.359 -73.415 -138.425 C -74.286 -130.829 -71.297 -113.292 -70.083 -97.419 C -68.322 -74.378 -64.509 -51.366 -63.146 -28.297 C -62.974 -25.386 -63.048 -21.097 -62.865 -18.534 C -62.752 -16.955 -62.765 -16.948 -61.91 -16.774 C -43.448 -13.012 -21.445 -10.123 -0.875 -3.311" style="fill: rgb(196, 196, 196); fill-opacity: 1;"/>
            </g>
          </g>
        </g>
      </g>
    </g>
  </g>
  <path class="cls-5" d="M 797.842 357.156 C 796.897 352.725 797.207 362.656 799.876 360.478 C 800.142 360.26 799.787 359.569 799.624 360.027 C 799.52 360.317 799.255 362.896 799.17 359.849 C 799.441 359.67 789.686 345.621 800.179 343.972 C 802.909 343.542 806.273 343.754 831.751 361.074 C 858.22 379.14 879.502 400.574 898.106 426.71 C 918.884 455.894 935.02 488.164 945.926 522.354 C 954.411 548.364 959.745 575.31 961.815 602.608 C 963.071 622.612 963.262 642.67 962.388 662.696 C 961.277 695.216 958.802 727.677 947.146 758.583 C 939.689 778.8 928.31 797.32 913.67 813.059 C 896.934 830.993 876.967 845.085 858.091 860.467 C 856.895 861.418 855.268 862.477 854.504 861.513 C 853.021 859.791 854.252 857.974 855.508 856.275 C 864.129 844.665 872.053 832.546 879.239 819.985 C 893.144 795.159 903.542 768.502 910.132 740.781 C 914.895 720.416 918.178 699.73 919.959 678.883 C 922.252 655.369 922.867 631.717 921.801 608.11 C 919.739 565.467 910.593 523.471 894.745 483.872 C 884.534 457.76 870.734 433.219 853.751 410.968 C 838.698 391.177 820.358 374.162 799.546 360.671 C 798.377 359.97 799.189 356.968 797.842 357.156 Z" style="fill: rgb(71, 73, 73);"/>
  <path class="cls-12" d="M 796.631 358.381 C 795.426 360.865 795.957 363.615 798.254 364.808 C 854.068 393.799 878.594 450.097 897.975 507.354 C 916.02 560.664 918.709 615.9 914.256 671.715 C 911.289 708.941 904.733 745.362 890.892 780.259 C 881.715 803.303 869.698 825.122 855.121 845.214 C 852.89 848.301 850.215 851.218 848.562 854.534 C 841.107 869.616 827.951 877.818 813.54 884.998 C 784.24 899.625 753.114 908.391 721.109 914.241 C 667.763 923.967 614.141 931.58 559.886 931.965 C 483.135 932.445 411.132 914.589 345.685 873.242 C 290.99 838.659 259.606 789.483 250.107 725.801 C 242.765 676.29 240.804 626.621 245.83 576.834 C 250.503 530.576 264.35 487.118 289.54 447.683 C 311.799 412.857 342.578 386.895 378.061 366.313 C 425.426 338.848 476.67 322.457 530.688 314.675 C 591.982 305.825 650.3 307.111 711.254 316.584 C 732.399 320.057 725.048 319.603 733.506 321.383 C 758.928 326.733 776.71 330.208 797.994 342.66 C 800.98 344.426 795.684 353.961 796.631 358.381 Z M 805.518 613.856 C 805.719 604.651 804.846 595.454 802.915 586.453 C 799.915 572.27 795.444 558.605 784.819 548.026 C 774.494 537.722 762.355 537.758 751.869 547.822 C 746.873 552.749 742.939 558.642 740.305 565.138 C 729.64 590.356 728.547 616.282 733.984 642.725 C 736.501 654.974 740.804 666.562 748.924 676.35 C 760.595 690.377 775.408 690.389 787.246 676.578 C 790.725 672.434 793.594 667.823 795.771 662.875 C 802.865 647.265 805.288 630.789 805.518 613.856 Z M 412.927 670.177 C 413.113 660.949 412.22 651.731 410.263 642.714 C 407.178 628.303 402.638 614.481 391.637 603.891 C 381.59 594.21 369.728 594.283 359.556 603.891 C 352.854 610.231 348.586 618.133 345.543 626.706 C 337.093 650.484 336.1 674.74 341.415 699.322 C 344.414 713.155 349.186 726.258 359.764 736.321 C 369.655 745.736 381.351 745.592 391.401 736.321 C 396.454 731.435 400.469 725.589 403.205 719.124 C 410.286 703.537 412.709 687.05 412.927 670.177 Z M 604.079 846.356 C 609.886 846.032 615.702 845.814 621.495 845.359 C 661.144 842.212 698.582 832.761 730.059 806.763 C 732.843 804.469 735.807 802.402 738.651 800.182 C 743.471 796.435 744.56 792.138 741.816 788.412 C 738.867 784.391 734.592 784.368 729.231 788.354 C 727.628 789.555 726.061 790.754 724.411 792.028 C 706.178 805.97 687.056 818.267 664.171 823.251 C 653.583 825.545 643.018 827.814 632.275 829.147 C 600.791 833.062 569.805 831.43 539.948 819.853 C 528.967 815.602 518.362 810.352 507.611 805.527 C 503.157 803.521 499.182 803.893 496.77 808.481 C 494.359 813.068 496.282 816.647 500.603 818.879 C 533.108 835.608 566.914 847.208 604.079 846.356 Z M 749.547 454.238 C 733.648 454.588 720.638 461.54 709.26 471.999 C 706.56 474.486 704.21 477.224 707.399 480.633 C 710.588 484.045 713.42 481.943 716.178 479.433 C 722.566 473.513 729.664 468.625 738.072 466.152 C 750.54 462.44 762.232 464.951 773.379 471.062 C 776.316 472.66 779.399 473.152 781.292 469.863 C 783.268 466.44 781.513 463.857 778.192 462.093 C 769.425 457.193 759.593 454.497 749.547 454.238 Z M 409.454 524.548 C 409.684 521.043 407.049 519.877 404.568 518.545 C 381.299 506.032 356.089 509.982 336.408 529.184 C 333.901 531.586 331.924 534.241 334.702 537.399 C 337.748 540.855 340.723 539.067 343.458 536.521 C 347.381 532.8 351.747 529.574 356.46 526.914 C 367.968 520.526 379.915 519.482 392.244 524.104 C 395.591 525.365 398.733 527.144 402.055 528.511 C 405.897 530.134 409.246 528.248 409.454 524.548 Z" style="fill: rgb(255, 215, 202);"/>
  <g id="页面-1" stroke="none" stroke-width="1" fill="none" fill-rule="evenodd" transform="matrix(0.506254, 0, 0, 0.506254, 421.128858, 1113.299472)" style="">
    <path class="cls-1" d="M 397.214 159.584 L 378.102 159.584 C 376.464 159.577 375.135 160.906 375.142 162.543 L 375.142 189.61 L 320.585 189.61 L 320.585 162.543 C 320.585 160.909 319.26 159.584 317.626 159.584 L 298.488 159.584 C 296.856 159.584 295.534 160.911 295.541 162.543 L 295.541 236.687 C 295.534 238.319 296.856 239.646 298.488 239.646 L 317.6 239.646 C 319.234 239.646 320.559 238.321 320.559 236.687 L 320.559 209.62 L 375.142 209.62 L 375.142 236.687 C 375.135 238.324 376.464 239.653 378.102 239.646 L 397.214 239.646 C 398.846 239.646 400.167 238.319 400.161 236.687 L 400.161 162.543 C 400.167 160.911 398.846 159.584 397.214 159.584 Z" style="fill: rgb(24, 88, 254);"/>
    <path class="cls-1" d="M 487.46 161.057 C 486.932 160.142 485.954 159.581 484.898 159.584 L 459.432 159.584 C 458.377 159.583 457.4 160.144 456.87 161.057 L 414.098 235.214 C 412.954 237.173 414.358 239.635 416.627 239.646 C 416.638 239.646 416.648 239.646 416.659 239.646 L 438.731 239.646 C 439.786 239.645 440.761 239.084 441.293 238.173 L 469.654 189.034 C 470.794 187.063 473.639 187.063 474.778 189.034 L 503.139 238.173 C 503.674 239.082 504.647 239.642 505.701 239.646 L 527.722 239.646 C 529.989 239.66 531.422 237.214 530.3 235.242 C 530.295 235.233 530.289 235.223 530.284 235.214 L 487.46 161.057 Z" style="fill: rgb(24, 88, 254);"/>
    <path class="cls-1" d="M 650.812 159.584 L 631.7 159.584 C 630.068 159.584 628.747 160.911 628.754 162.543 L 628.754 206.238 C 628.752 208.516 626.285 209.938 624.313 208.797 C 624.138 208.695 623.973 208.576 623.822 208.441 L 569.213 159.584 L 547.091 159.584 C 545.458 159.584 544.137 160.911 544.144 162.543 L 544.144 236.687 C 544.137 238.319 545.458 239.646 547.091 239.646 L 566.203 239.646 C 567.84 239.653 569.169 238.324 569.162 236.687 L 569.162 192.992 C 569.16 190.725 571.615 189.305 573.58 190.438 C 573.759 190.541 573.927 190.663 574.081 190.802 L 628.703 239.646 L 650.812 239.646 C 652.45 239.653 653.779 238.324 653.772 236.687 L 653.772 162.543 C 653.779 160.906 652.45 159.577 650.812 159.584 Z" style="fill: rgb(24, 88, 254);"/>
    <path class="cls-1" d="M 702.808 179.606 L 766.858 179.606 C 768.489 179.599 769.81 178.278 769.817 176.647 L 769.817 162.556 C 769.817 160.922 768.492 159.597 766.858 159.597 L 695.199 159.597 C 678.641 159.646 665.229 173.053 665.172 189.61 L 665.172 209.62 C 665.222 226.182 678.636 239.597 695.199 239.646 L 766.845 239.646 C 768.479 239.646 769.804 238.321 769.804 236.687 L 769.804 192.557 C 769.797 190.928 768.474 189.61 766.845 189.61 L 733.065 189.61 C 732.01 189.61 731.033 190.171 730.503 191.084 L 722.356 205.175 C 721.225 207.145 722.645 209.603 724.918 209.607 L 744.825 209.607 L 744.825 219.624 L 702.808 219.624 C 695.848 219.603 690.211 213.966 690.19 207.007 L 690.19 192.249 C 690.19 185.276 695.835 179.62 702.808 179.606 Z" style="fill: rgb(24, 88, 254);"/>
    <path class="cls-1" d="M 316.742 95.573 C 315.55 98.404 315.397 101.607 314.564 104.54 C 310.721 117.99 304.162 129.455 296.464 140.164 C 294.312 143.149 292.147 146.121 290.059 149.131 C 289.034 150.828 287.199 151.867 285.216 151.872 L 250.732 151.872 C 251.565 150.592 252.013 149.759 252.603 148.965 C 259.738 138.448 266.924 127.944 273.982 117.324 C 277.193 112.605 279.66 107.42 281.297 101.952 C 282.706 97.046 281.118 94.266 276.775 94.036 C 268.999 93.511 261.685 95.726 254.639 99.378 C 236.168 108.959 219.835 122.435 204.411 137.551 C 200.236 141.638 195.957 145.557 191.819 149.682 C 189.257 152.244 186.465 152.731 183.441 151.091 C 176.255 147.248 169.094 143.302 161.664 139.216 C 165.188 136.18 168.48 133.273 171.823 130.441 C 182.443 121.474 193.126 112.725 204.155 104.514 C 221.948 91.179 240.305 79.304 260.25 71.068 C 266.722 68.231 273.624 66.499 280.669 65.943 C 281.054 65.943 281.463 65.943 281.681 65.482 L 291.506 65.482 C 294.068 66.033 296.63 66.354 299.192 67.071 C 306.148 69.082 311.925 73.027 315.089 81.046 C 315.845 82.917 315.692 85.107 316.716 86.836 L 316.742 95.573 Z" style="fill: rgb(24, 88, 254);"/>
    <path class="cls-1" d="M 43.89 122.192 C 47.02 120.785 50.426 120.102 53.856 120.193 C 77.208 119.566 99.844 124.831 122.236 131.863 C 143.397 138.574 163.626 147.931 182.443 159.712 C 195.288 167.865 207.488 176.992 218.938 187.01 C 222.653 190.2 223.78 190.136 226.624 186.011 C 232.226 178.086 237.777 170.122 243.277 162.12 C 244.251 160.724 245.275 159.559 246.941 159.559 L 282.68 159.559 C 281.133 162.392 279.364 165.099 277.389 167.655 C 262.206 189.679 247.009 211.686 231.799 233.677 C 228.904 237.866 225.599 240.581 220.77 238.955 C 219.068 238.352 217.569 237.288 216.44 235.88 C 209.446 227.451 202.657 218.804 195.214 210.901 C 183.749 198.782 171.493 187.437 158.526 176.942 C 146.579 167.13 133.88 158.272 120.545 150.451 C 101.176 139.203 81.039 130.557 59.684 126.137 C 54.382 125.023 49.155 123.511 43.89 122.192 Z" style="fill: rgb(24, 88, 254);"/>
    <path class="cls-1" d="M 59.57 239.646 C 63.323 235.649 66.718 231.96 70.138 228.361 C 82.948 214.782 95.975 201.626 109.092 188.56 C 115.625 182.001 122.197 175.673 128.705 169.192 C 130.3 167.227 133.209 166.982 135.11 168.653 C 142.053 173.778 148.987 178.961 155.913 184.205 C 157.783 185.614 157.745 186.613 155.913 188.778 C 151.122 194.504 146.255 200.153 141.476 205.892 C 133.252 215.82 125.105 225.876 117.253 236.188 C 115.821 238.361 113.387 239.663 110.784 239.646 C 94.374 239.518 77.965 239.646 61.568 239.646 L 59.57 239.646 Z" style="fill: rgb(24, 88, 254);"/>
  </g>
</svg>